<?xml version="1.0" standalone="no"?>
<!DOCTYPE svg PUBLIC "-//W3C//DTD SVG 20010904//EN"
 "http://www.w3.org/TR/2001/REC-SVG-20010904/DTD/svg10.dtd">
<svg version="1.0" xmlns="http://www.w3.org/2000/svg"
 width="700.000000pt" height="700.000000pt" viewBox="0 0 700.000000 700.000000"
 preserveAspectRatio="xMidYMid meet">
<metadata>
Created by potrace 1.11, written by Peter Selinger 2001-2013
</metadata>
<g transform="translate(0.000000,700.000000) scale(0.100000,-0.100000)"
fill="#000000" stroke="none">
<path d="M3489 6988 c0 -7 -2 -20 -4 -28 -2 -8 -12 -67 -23 -130 -12 -63 -28
-155 -37 -205 -9 -49 -22 -128 -31 -174 -8 -47 -16 -86 -18 -89 -3 -2 -20 -5
-38 -7 -18 -2 -67 -6 -108 -9 -651 -58 -1278 -354 -1749 -827 -171 -172 -335
-386 -454 -595 -57 -98 -167 -327 -167 -346 0 -8 -4 -18 -9 -23 -23 -24 -122
-360 -146 -490 -30 -170 -42 -264 -50 -390 -1 -16 -3 -35 -4 -42 0 -6 -22 -15
-48 -19 -54 -7 -49 -7 -163 -27 -47 -9 -98 -18 -115 -20 -16 -3 -68 -12 -115
-21 -47 -8 -101 -18 -120 -21 -66 -10 -90 -17 -90 -24 0 -4 55 -17 122 -29
411 -74 514 -92 522 -95 5 -2 11 -19 12 -38 11 -152 16 -192 40 -329 66 -375
211 -741 420 -1060 394 -601 1009 -1037 1702 -1206 59 -15 116 -28 128 -29 11
-2 45 -8 75 -14 74 -14 110 -19 209 -27 47 -3 94 -8 105 -9 11 -1 25 -3 31 -4
7 0 15 -22 18 -49 4 -26 11 -69 17 -97 7 -41 51 -290 74 -420 15 -90 20 -104
29 -94 4 4 53 268 98 534 11 66 22 121 23 123 2 2 29 5 61 8 147 12 283 30
374 50 14 3 36 7 50 10 126 25 339 92 475 148 718 299 1283 874 1569 1599 70
177 136 421 161 592 3 23 7 51 10 64 2 13 7 63 11 110 6 90 11 131 16 137 2 1
46 10 98 19 52 9 106 18 120 21 14 2 63 11 110 19 47 9 121 22 165 30 44 8 96
17 115 20 72 12 59 20 -80 45 -63 11 -128 23 -145 26 -53 10 -249 44 -317 56
-38 6 -68 14 -69 17 -1 11 -7 83 -13 166 -4 44 -9 87 -11 95 -2 8 -6 32 -9 53
-15 96 -19 119 -42 217 -144 617 -488 1165 -984 1566 -97 79 -246 184 -259
184 -6 0 -11 3 -11 8 0 4 -9 12 -19 17 -11 6 -69 38 -130 71 -228 127 -489
226 -746 283 -176 39 -254 50 -462 65 -18 1 -35 5 -38 8 -3 3 -10 30 -15 59
-4 30 -11 68 -14 84 -3 17 -12 68 -20 115 -9 47 -18 96 -20 110 -13 71 -46
260 -46 265 0 11 -20 4 -21 -7z m-207 -1153 c3 -3 -3 -47 -13 -98 -9 -50 -20
-108 -23 -127 -3 -19 -14 -84 -25 -145 -11 -60 -23 -126 -26 -145 -3 -19 -10
-57 -15 -85 -5 -27 -12 -66 -15 -85 -3 -19 -10 -60 -15 -90 -6 -30 -12 -68
-15 -85 -3 -16 -8 -41 -10 -55 -3 -14 -8 -38 -10 -55 -3 -16 -8 -41 -10 -55
-3 -14 -8 -43 -11 -65 -11 -71 -2 -80 -149 152 -62 98 -64 91 -25 -82 10 -44
28 -125 40 -180 12 -55 30 -137 41 -183 10 -46 19 -99 19 -119 l0 -35 -37 24
c-34 20 -387 266 -662 460 -57 40 -127 89 -156 109 -29 20 -73 51 -99 69 -25
18 -49 31 -52 27 -4 -3 22 -46 56 -94 88 -125 276 -395 341 -488 31 -44 108
-155 172 -247 65 -91 117 -169 117 -172 0 -11 -72 -6 -129 8 -31 8 -67 17 -81
20 -14 2 -118 25 -232 50 -114 25 -210 46 -214 46 -18 0 29 -36 141 -106 69
-43 125 -81 125 -84 0 -4 -35 -12 -77 -18 -99 -16 -121 -19 -213 -37 -69 -13
-348 -63 -395 -70 -11 -2 -36 -6 -55 -9 -19 -3 -46 -8 -60 -11 -13 -2 -40 -7
-60 -10 -20 -3 -47 -8 -60 -11 -14 -2 -38 -7 -55 -9 -16 -2 -54 -9 -84 -15
-80 -15 -83 -14 -77 18 3 15 8 48 11 74 4 41 39 225 50 268 166 637 587 1170
1175 1487 154 83 320 147 500 194 122 31 136 34 270 54 47 7 88 13 91 14 3 1
8 -1 11 -4z m533 -9 c49 -6 151 -25 225 -41 242 -56 508 -170 730 -313 523
-339 893 -880 1019 -1492 11 -52 22 -120 26 -150 3 -30 8 -69 11 -87 l6 -32
-33 9 c-19 5 -52 11 -74 15 -23 3 -52 8 -65 10 -30 6 -193 34 -235 41 -16 2
-43 7 -60 11 -16 3 -39 7 -50 9 -11 2 -83 14 -160 28 -77 14 -156 27 -175 30
-19 4 -55 10 -80 16 -69 14 -194 34 -202 32 -5 -1 -8 1 -8 6 0 6 59 46 219
146 34 21 49 36 42 41 -7 4 -19 4 -27 1 -9 -3 -59 -15 -112 -27 -53 -11 -105
-22 -115 -24 -10 -2 -26 -6 -35 -9 -9 -3 -30 -8 -47 -11 -47 -8 -75 -14 -93
-19 -9 -3 -30 -8 -47 -11 -16 -3 -43 -9 -60 -13 -46 -9 -100 -8 -103 3 -2 6
151 230 338 498 188 269 340 491 337 494 -3 3 -63 -35 -132 -84 -70 -48 -137
-95 -149 -103 -11 -8 -177 -124 -368 -257 -191 -134 -349 -243 -352 -243 -13
0 -5 73 20 181 14 63 28 125 30 139 3 14 21 93 40 177 19 83 34 154 34 157 0
22 -26 -11 -100 -128 -47 -74 -88 -132 -91 -128 -4 4 -14 52 -23 107 -18 104
-39 223 -56 310 -5 28 -11 66 -14 85 -3 19 -8 45 -10 56 -2 12 -7 37 -10 55
-3 19 -15 86 -26 149 -12 63 -23 129 -25 145 -3 17 -9 53 -14 80 -6 28 -13 67
-15 87 -3 21 -6 41 -7 45 -3 17 2 22 19 19 9 -2 44 -7 77 -10z m-2497 -2566
c66 -11 131 -23 144 -25 13 -3 64 -12 113 -21 134 -23 143 -24 230 -40 44 -8
121 -21 170 -29 50 -8 110 -19 135 -25 43 -9 62 -12 158 -26 23 -4 42 -10 42
-13 0 -3 -25 -22 -56 -41 -31 -19 -67 -42 -79 -50 -12 -8 -44 -28 -71 -45 -47
-28 -67 -46 -60 -53 2 -1 75 13 162 33 88 19 168 37 179 39 11 2 71 16 134 30
110 25 181 33 181 20 0 -4 -40 -64 -89 -133 -48 -69 -105 -151 -127 -181 -21
-30 -62 -89 -91 -130 -29 -41 -78 -111 -109 -155 -30 -44 -82 -118 -115 -165
-127 -180 -161 -232 -156 -237 3 -3 225 149 494 337 268 188 492 342 498 343
23 4 13 -62 -50 -348 -57 -258 -68 -323 -51 -304 4 5 104 161 141 221 17 27
32 48 35 48 3 0 15 -60 28 -132 12 -73 24 -144 27 -158 3 -14 8 -41 11 -60 2
-19 9 -57 14 -85 5 -27 16 -88 24 -135 9 -47 24 -134 35 -195 11 -60 22 -126
25 -145 3 -19 11 -64 19 -100 18 -91 17 -115 -8 -113 -388 38 -775 183 -1100
412 -27 20 -52 38 -55 41 -3 3 -32 25 -65 49 -90 67 -300 283 -386 396 -186
246 -314 499 -394 775 -15 52 -29 104 -31 115 -2 11 -7 34 -11 50 -7 34 -6 29
-25 157 -14 93 -14 113 2 103 4 -2 61 -14 128 -25z m4500 -42 c-14 -106 -17
-127 -42 -237 -64 -281 -187 -560 -352 -797 -89 -129 -157 -209 -283 -334
-157 -156 -290 -256 -506 -383 -50 -30 -236 -117 -249 -117 -7 0 -16 -4 -21
-9 -13 -11 -168 -64 -265 -90 -93 -25 -208 -48 -280 -56 -30 -3 -62 -8 -72
-11 -9 -3 -19 0 -23 5 -4 8 30 227 71 441 4 24 23 129 64 363 11 61 21 121 24
132 2 11 9 54 16 95 7 41 15 79 17 84 3 4 19 -14 36 -40 161 -252 145 -229
153 -222 6 6 -17 113 -106 501 -11 49 -20 104 -20 124 0 42 7 41 83 -15 157
-117 919 -643 924 -638 4 4 -158 241 -419 610 -32 45 -82 117 -112 161 -30 44
-77 113 -105 153 -28 40 -51 75 -51 77 0 15 95 -1 356 -59 159 -36 292 -61
297 -57 4 4 -54 45 -128 91 -74 47 -135 88 -135 92 0 5 10 8 23 9 12 0 33 2
46 5 115 21 372 67 396 71 28 4 173 30 220 39 11 2 40 7 65 10 25 3 48 8 51
10 4 2 24 6 45 9 58 8 215 36 249 45 17 4 33 6 36 4 3 -2 2 -32 -3 -66z"/>
</g>
</svg>
